<?xml version="1.0" encoding="utf-8"?>
<!-- Generator: Adobe Illustrator 25.2.0, SVG Export Plug-In . SVG Version: 6.00 Build 0)  -->
<svg version="1.1" id="Layer_1" xmlns="http://www.w3.org/2000/svg" xmlns:xlink="http://www.w3.org/1999/xlink" x="0px" y="0px"
	 viewBox="0 0 62 62" style="enable-background:new 0 0 62 62;" xml:space="preserve">
<style type="text/css">
	.st0{fill:url(#SVGID_1_);}
	.st1{fill:url(#SVGID_2_);}
	.st2{fill:url(#SVGID_3_);}
	.st3{fill:url(#SVGID_4_);}
	.st4{fill:url(#SVGID_5_);}
	.st5{fill:url(#SVGID_6_);}
	.st6{fill:url(#SVGID_7_);}
	.st7{fill:url(#SVGID_8_);}
	.st8{fill:url(#SVGID_9_);}
	.st9{fill:url(#SVGID_10_);}
	.st10{fill:url(#SVGID_11_);}
	.st11{fill:url(#SVGID_12_);}
	.st12{fill:url(#SVGID_13_);}
	.st13{fill:url(#SVGID_14_);}
	.st14{fill:url(#SVGID_15_);}
	.st15{fill:url(#SVGID_16_);}
	.st16{fill:url(#SVGID_17_);}
	.st17{fill:url(#SVGID_18_);}
	.st18{fill:url(#SVGID_19_);}
	.st19{fill:url(#SVGID_20_);}
	.st20{fill:url(#SVGID_21_);}
</style>
<g>
	<linearGradient id="SVGID_1_" gradientUnits="userSpaceOnUse" x1="30.83" y1="62.8667" x2="31.2886" y2="-0.8785">
		<stop  offset="0" style="stop-color:#29C9FE"/>
		<stop  offset="1" style="stop-color:#9D39FE"/>
	</linearGradient>
	<path class="st0" d="M59,33.7c-0.4,1.2-1.3,2-2.2,2.9c-3.9,3.6-7.8,7.2-11.6,10.9c-1.6,1.5-3.3,2.2-5.5,2.2c-4.7-0.1-9.4,0-14.1,0
		c-0.2,0-0.4,0-0.6,0c0,0.1,0,0.1,0,0.1c0.7,0.9,0.7,1.3-0.1,2.1c-2.2,2.2-4.4,4.4-6.6,6.6c-0.8,0.8-1.3,0.8-2.1,0
		C12,54.2,7.8,50,3.6,45.8c-0.8-0.8-0.8-1.3,0-2.1c2.1-2.1,4.2-4.2,6.4-6.4c1.2-1.2,1.3-1.2,2.6-0.2c0.9-0.8,1.8-1.5,2.7-2.3
		c1.6-1.5,3.4-2.7,5.6-3.3c0.3-0.1,0.4-0.3,0.4-0.6c0.2-6,2.7-10.8,7.4-14.5c0.3-0.3,0.7-0.5,1.1-0.8c-0.7-0.9-1-2-0.6-3.1
		c0.3-1.1,1.1-1.9,2.3-2.3c-0.3-0.5-0.6-1.1-0.9-1.6c-0.6-1.1-1.3-2.2-1.9-3.4c-0.5-0.9-0.2-1.6,0.8-1.8c1.1-0.3,2.3-0.5,3.4-0.7
		c1.8,0,3.5,0,5.3,0c1.2,0.2,2.3,0.5,3.5,0.8c0.9,0.2,1.2,0.9,0.7,1.7c-0.5,1-1.1,2-1.6,2.9c-0.4,0.7-0.7,1.3-1.1,2
		c1.1,0.4,1.9,1.1,2.3,2.3c0.3,1.1,0.1,2.2-0.6,3.1c5.4,3.6,8.1,8.7,8.6,15.1c0.9-0.6,1.8-1.2,2.7-1.8c1.7-1.1,3.6-1.1,5.2,0.3
		c0.6,0.5,1,1.3,1.4,2C59,32.2,59,32.9,59,33.7z M14.1,38.8c2.8,2.8,5.6,5.5,8.3,8.3c0.3,0.3,0.5,0.4,0.9,0.4c5.7,0,11.4,0,17.1,0
		c1.2,0,2.1-0.4,3-1.2c4.2-4,8.5-8,12.8-12c0.1-0.1,0.2-0.2,0.3-0.3c0.7-0.9,0.8-1.9,0.1-2.7c-0.7-0.8-1.8-1-2.7-0.3
		c-3.5,2.3-6.9,4.5-10.4,6.8c-0.1,0.1-0.3,0.3-0.3,0.5c0.1,2.8-1.8,4.8-4.6,4.8c-2.4,0-4.8,0-7.2,0c-0.1,0-0.3,0-0.4,0
		c-0.5-0.1-0.9-0.5-0.9-1.1c0-0.5,0.4-1,0.9-1.1c0.2,0,0.4,0,0.6,0c2.4,0,4.7,0,7.1,0c1.4,0,2.4-0.9,2.4-2.2c0-1.3-1-2.2-2.4-2.2
		c-1.3,0-2.6,0-3.9,0c-1.2,0.1-2.2-0.3-3.1-1c-3.2-2.4-6.8-2.9-10.6-1.6C18.1,34.7,16.3,36.9,14.1,38.8z M36.5,34.2c0.7,0,1.3,0,2,0
		c1.3,0,2.4,0.4,3.4,1.3c0.2,0.2,0.4,0.2,0.6,0.1c1.2-0.8,2.4-1.7,3.7-2.4c1.1-0.6,1.4-1.4,1.3-2.6c-0.3-4.7-2.1-8.6-5.7-11.7
		c-4-3.5-8.6-3.5-12.7-0.1c-2.9,2.4-4.7,5.5-5.5,9.2c-0.2,1-0.3,2-0.4,3c5,0.1,5.7,0.3,10,3c0.3,0.2,0.6,0.2,1,0.3
		c0-0.3,0-0.5,0-0.7c0.1-0.5-0.1-0.7-0.5-0.9c-0.5-0.2-0.9-0.6-1.3-1c-0.6-0.6-0.6-1.2-0.1-1.7c0.5-0.5,1.1-0.4,1.7,0.2
		c0.3,0.3,0.7,0.5,1,0.7c0.6,0.2,1.2-0.2,1.3-0.7c0.2-0.5-0.1-1.1-0.7-1.3c-0.2-0.1-0.5-0.1-0.8-0.1c-1.4-0.2-2.3-1-2.7-2.4
		c-0.4-1.3-0.1-2.6,1-3.3c0.8-0.5,1.1-1,1-2c-0.1-0.6,0.5-1,1.1-1c0.6,0,1,0.4,1.1,1c0,0.3,0,0.6,0,0.9c0,0.3,0.1,0.4,0.4,0.6
		c0.4,0.2,0.9,0.5,1.3,0.9c0.4,0.4,0.4,1.1,0,1.5c-0.4,0.4-0.9,0.5-1.4,0.1c-0.3-0.2-0.6-0.5-1-0.6c-0.6-0.2-1.2,0.1-1.4,0.7
		c-0.2,0.6,0.2,1.1,0.8,1.3c0.1,0,0.3,0.1,0.4,0.1c1.6,0.2,2.8,1.2,3.1,2.7c0.3,1.5-0.4,2.8-1.8,3.6c-0.1,0.1-0.3,0.3-0.3,0.4
		C36.5,33.6,36.5,33.9,36.5,34.2z M22.8,50.8c-3.9-3.9-7.7-7.7-11.5-11.5c-1.8,1.8-3.7,3.7-5.5,5.5c3.8,3.8,7.6,7.6,11.4,11.4
		C19.1,54.4,21,52.6,22.8,50.8z M39.7,5.5c-2.9-0.6-5.7-0.6-8.6,0c0.8,1.4,1.6,2.8,2.3,4.2c0.1,0.1,0.3,0.2,0.5,0.2c1,0,2,0,3,0
		c0.2,0,0.4-0.1,0.5-0.2C38.2,8.3,38.9,6.9,39.7,5.5z M35.4,11.8c-1.2,0.2-2.3,0.4-3.4,0.7c-0.7,0.2-1,0.8-0.8,1.4
		c0.2,0.6,0.7,0.8,1.4,0.6c1.9-0.5,3.8-0.5,5.7,0c0.5,0.1,0.9,0.1,1.2-0.3c0.5-0.6,0.2-1.5-0.6-1.8C37.8,12.2,36.6,12.1,35.4,11.8z"
		/>
	<linearGradient id="SVGID_2_" gradientUnits="userSpaceOnUse" x1="26.5111" y1="62.8356" x2="26.9697" y2="-0.9096">
		<stop  offset="0" style="stop-color:#29C9FE"/>
		<stop  offset="1" style="stop-color:#9D39FE"/>
	</linearGradient>
	<path class="st1" d="M26.7,40.8c0.6,0,1.1,0.5,1.1,1.1c0,0.6-0.5,1.1-1.1,1.1c-0.6,0-1.1-0.5-1.1-1.1
		C25.6,41.3,26.1,40.8,26.7,40.8z"/>
</g>
</svg>
